<svg width="25" height="25" viewBox="0 0 58 44" fill="none" xmlns="http://www.w3.org/2000/svg">
<path d="M17.3884 11V8.8C17.3884 6.46609 18.6106 4.22778 20.786 2.57746C22.9614 0.92714 25.9119 0 28.9884 0C32.0649 0 35.0154 0.92714 37.1909 2.57746C39.3663 4.22778 40.5884 6.46609 40.5884 8.8V11H50.7297C53.4963 11 55.5582 12.936 54.984 14.993L48.0182 39.6528C47.67 40.8833 46.7761 41.9861 45.4858 42.7772C44.1955 43.5683 42.5867 43.9999 40.9277 44H17.052C15.393 43.9999 13.7842 43.5683 12.4939 42.7772C11.2036 41.9861 10.3098 40.8833 9.96152 39.6528L2.99572 14.9908C2.8605 14.5097 2.86868 14.0118 3.01965 13.5334C3.17062 13.055 3.46057 12.6082 3.86831 12.2257C4.27605 11.8432 4.79129 11.5347 5.37637 11.3226C5.96145 11.1106 6.60159 11.0003 7.25002 11H17.3884ZM20.2884 11H37.6884V8.8C37.6884 7.04957 36.7718 5.37084 35.1402 4.1331C33.5087 2.89536 31.2958 2.2 28.9884 2.2C26.681 2.2 24.4682 2.89536 22.8366 4.1331C21.205 5.37084 20.2884 7.04957 20.2884 8.8V11ZM17.3884 13.2H7.25002C7.03389 13.2004 6.82059 13.2373 6.62565 13.3081C6.43072 13.3789 6.25907 13.4818 6.12321 13.6093C5.98735 13.7369 5.8907 13.8858 5.84031 14.0452C5.78992 14.2046 5.78705 14.3706 5.83192 14.531L12.7977 39.1908C13.2298 40.7132 15.0017 41.8 17.052 41.8H40.9277C42.978 41.8 44.7528 40.7132 45.182 39.1908L52.1478 14.5332C52.1932 14.3727 52.1907 14.2065 52.1405 14.0467C52.0904 13.887 51.9938 13.7378 51.8579 13.61C51.722 13.4823 51.5501 13.3791 51.3549 13.3082C51.1598 13.2373 50.9461 13.2003 50.7297 13.2H40.5884V19.8H37.6884V13.2H20.2884V19.8H17.3884V13.2Z" fill="black"/>
</svg>
