<svg width="25" height="25" viewBox="0 0 41 46" fill="none" xmlns="http://www.w3.org/2000/svg">
<g clip-path="url(#clip0)">
<path d="M34.3375 24.5617L33.9377 25.0102L20.9838 10.2672L21.2913 9.92219C23.0229 7.98453 25.3687 6.8964 27.8144 6.8964C30.26 6.8964 32.6059 7.98453 34.3375 9.92219C36.0651 11.8651 37.0354 14.4975 37.0354 17.2419C37.0354 19.9864 36.0651 22.6188 34.3375 24.5617ZM19.844 40.8227C19.7456 40.9331 19.6451 41.0297 19.5406 41.1263C19.436 41.032 19.3361 40.9315 19.2413 40.825L4.74368 24.5617C3.01764 22.6183 2.04847 19.9866 2.04847 17.2431C2.04847 14.4996 3.01764 11.8679 4.74368 9.92449C5.60008 8.96274 6.61737 8.20026 7.73715 7.68083C8.85692 7.1614 10.0571 6.89526 11.2688 6.89769C12.4805 6.89551 13.6806 7.16177 14.8004 7.68118C15.9201 8.2006 16.9374 8.96294 17.794 9.92449L32.4925 26.634L19.844 40.825V40.8227ZM35.7868 8.29839C33.6702 5.93067 30.8033 4.60109 27.8144 4.60109C24.8255 4.60109 21.9585 5.93067 19.8419 8.29839L19.5406 8.63419L19.2413 8.29839C17.1243 5.93053 14.257 4.60089 11.2678 4.60089C8.27857 4.60089 5.41126 5.93053 3.29433 8.29839C1.18447 10.6734 -0.000244141 13.8899 -0.000244141 17.2431C-0.000244141 20.5963 1.18447 23.8128 3.29433 26.1878L17.7919 42.4488C18.0789 42.7708 18.3926 43.0422 18.7062 43.309L19.5406 44.0289L20.3749 43.309C20.6906 43.0422 21.0043 42.7731 21.2913 42.4511L34.6573 27.4551L35.3768 26.6478L35.7868 26.1878C37.8977 23.8134 39.0831 20.5967 39.0831 17.2431C39.0831 13.8895 37.8977 10.6728 35.7868 8.29839Z" fill="black"/>
</g>
<defs>
<clipPath id="clip0">
<rect width="41" height="46" fill="white"/>
</clipPath>
</defs>
</svg>
